<svg width="39" height="32" viewBox="0 0 39 32" fill="none" xmlns="http://www.w3.org/2000/svg">
<path d="M7.37679 32H15.9041C17.8678 32 19.4597 30.4081 19.4597 28.4444V23.5866C19.4597 22.1024 18.5379 20.7742 17.1475 20.2549L9.38177 17.3548C8.1486 16.8943 8.1486 15.15 9.38177 14.6895L17.1475 11.7893C18.5379 11.2701 19.4597 9.9419 19.4597 8.45767V3.55555C19.4597 1.59187 17.8678 0 15.9041 0H7.37679C6.9186 0 6.54717 0.371438 6.54717 0.82963V10.3221C6.54717 11.7028 5.74786 12.9587 4.49703 13.5432L0.341689 15.4853C-0.113897 15.6982 -0.113896 16.3461 0.341689 16.559L4.49703 18.501C5.74786 19.0856 6.54717 20.3415 6.54717 21.7221V31.1704C6.54717 31.6286 6.9186 32 7.37679 32Z" fill="#0F0F11"/>
<path d="M25.6226 0.82963V8.33747C25.6226 10.0171 24.5798 11.5202 23.0065 12.1083L14.0282 15.4645C13.5139 15.6568 13.515 16.3846 14.0298 16.5753L22.9953 19.8964C24.5744 20.4814 25.6226 21.9874 25.6226 23.6714V31.1704C25.6226 31.6286 25.994 32 26.4522 32H34.9856C36.9493 32 38.5411 30.4081 38.5411 28.4444V24.7029C38.5411 23.7476 37.9677 22.8857 37.0866 22.5166L24.7096 17.3322C23.5464 16.8449 23.5455 15.1971 24.7082 14.7086L37.089 9.50643C37.9688 9.13674 38.5411 8.27547 38.5411 7.32113V3.55555C38.5411 1.59188 36.9493 0 34.9856 0H26.4522C25.994 0 25.6226 0.371438 25.6226 0.82963Z" fill="#0F0F11"/>
</svg>
